<!DOCTYPE svg PUBLIC "-//W3C//DTD SVG 20010904//EN" "http://www.w3.org/TR/2001/REC-SVG-20010904/DTD/svg10.dtd">
<svg version="1.0" xmlns="http://www.w3.org/2000/svg" width="578px" height="329px" viewBox="0 0 5780 3290" preserveAspectRatio="xMidYMid meet">
<g id="layer101" fill="#ffe002" stroke="none">
 <path d="M0 1645 l0 -1645 2890 0 2890 0 0 1645 0 1645 -2890 0 -2890 0 0 -1645z"/>
 </g>
<g id="layer102" fill="#ebe9ac" stroke="none">
 <path d="M3565 3253 c3 -21 12 -67 20 -103 40 -190 54 -259 60 -295 3 -22 12 -67 20 -100 7 -33 28 -134 45 -225 17 -91 35 -185 40 -210 5 -25 19 -92 31 -150 11 -58 29 -143 39 -190 10 -47 26 -125 35 -175 8 -49 20 -108 25 -130 5 -22 12 -56 15 -75 3 -19 10 -55 16 -80 8 -41 75 -370 86 -430 3 -14 22 -113 43 -220 21 -107 52 -267 69 -355 17 -88 35 -176 41 -195 5 -19 21 -99 36 -177 l28 -143 783 0 783 0 0 1645 0 1645 -1111 0 -1111 0 7 -37z"/>
 </g>

</svg>